<svg xmlns="http://www.w3.org/2000/svg" viewBox="0 0 560 400" fill="none">

  <!-- Row 1: Service Icons -->

  <!-- Holographic Displays -->
  <g transform="translate(40, 40)">
    <rect x="0" y="0" width="80" height="80" rx="8" fill="#0B0F1A"/>
    <g transform="translate(16, 16)" stroke="#00C8DC" stroke-width="1.5" stroke-linecap="round" stroke-linejoin="round">
      <path d="M24 4L4 14l20 10 20-10-20-10z"/>
      <path d="M4 34l20 10 20-10"/>
      <path d="M4 24l20 10 20-10"/>
    </g>
    <text x="40" y="96" font-family="Inter, Arial, sans-serif" font-size="9" fill="#94A3B8" text-anchor="middle">Holographic</text>
    <text x="40" y="107" font-family="Inter, Arial, sans-serif" font-size="9" fill="#94A3B8" text-anchor="middle">Displays</text>
  </g>

  <!-- Augmented & Mixed Reality -->
  <g transform="translate(160, 40)">
    <rect x="0" y="0" width="80" height="80" rx="8" fill="#0B0F1A"/>
    <g transform="translate(16, 16)" stroke="#00C8DC" stroke-width="1.5" stroke-linecap="round" stroke-linejoin="round">
      <path d="M4 24s6-14 20-14 20 14 20 14-6 14-20 14-20-14-20-14z"/>
      <circle cx="24" cy="24" r="6"/>
    </g>
    <text x="40" y="96" font-family="Inter, Arial, sans-serif" font-size="9" fill="#94A3B8" text-anchor="middle">Augmented &amp;</text>
    <text x="40" y="107" font-family="Inter, Arial, sans-serif" font-size="9" fill="#94A3B8" text-anchor="middle">Mixed Reality</text>
  </g>

  <!-- AI Process Automation -->
  <g transform="translate(280, 40)">
    <rect x="0" y="0" width="80" height="80" rx="8" fill="#0B0F1A"/>
    <g transform="translate(16, 16)" stroke="#00C8DC" stroke-width="1.5" stroke-linecap="round" stroke-linejoin="round">
      <rect x="18" y="18" width="12" height="12" rx="2"/>
      <path d="M18 4v4m12-4v4M18 40v4m12-4v4M4 18h4m-4 12h4M40 18h4m-4 12h4"/>
    </g>
    <text x="40" y="96" font-family="Inter, Arial, sans-serif" font-size="9" fill="#94A3B8" text-anchor="middle">AI Process</text>
    <text x="40" y="107" font-family="Inter, Arial, sans-serif" font-size="9" fill="#94A3B8" text-anchor="middle">Automation</text>
  </g>

  <!-- Digital Twin Solutions -->
  <g transform="translate(400, 40)">
    <rect x="0" y="0" width="80" height="80" rx="8" fill="#0B0F1A"/>
    <g transform="translate(16, 16)" stroke="#00C8DC" stroke-width="1.5" stroke-linecap="round" stroke-linejoin="round">
      <rect x="4" y="6" width="40" height="28" rx="4"/>
      <path d="M16 42h16m-8-8v8"/>
      <path d="M14 16h20M14 24h12"/>
    </g>
    <text x="40" y="96" font-family="Inter, Arial, sans-serif" font-size="9" fill="#94A3B8" text-anchor="middle">Digital Twin</text>
    <text x="40" y="107" font-family="Inter, Arial, sans-serif" font-size="9" fill="#94A3B8" text-anchor="middle">Solutions</text>
  </g>

  <!-- Row 2 -->

  <!-- Immersive Retail -->
  <g transform="translate(40, 200)">
    <rect x="0" y="0" width="80" height="80" rx="8" fill="#0B0F1A"/>
    <g transform="translate(16, 16)" stroke="#00C8DC" stroke-width="1.5" stroke-linecap="round" stroke-linejoin="round">
      <path d="M12 4L6 12v28a4 4 0 0 0 4 4h28a4 4 0 0 0 4-4V12L36 4z"/>
      <path d="M6 12h36"/>
      <path d="M32 20a8 8 0 0 1-16 0"/>
    </g>
    <text x="40" y="296" font-family="Inter, Arial, sans-serif" font-size="9" fill="#94A3B8" text-anchor="middle">Immersive Retail</text>
    <text x="40" y="307" font-family="Inter, Arial, sans-serif" font-size="9" fill="#94A3B8" text-anchor="middle">Experiences</text>
  </g>

  <!-- VR Training -->
  <g transform="translate(160, 200)">
    <rect x="0" y="0" width="80" height="80" rx="8" fill="#0B0F1A"/>
    <g transform="translate(16, 16)" stroke="#00C8DC" stroke-width="1.5" stroke-linecap="round" stroke-linejoin="round">
      <path d="M44 20v12M4 20l20-10 20 10-20 10-20-10z"/>
      <path d="M12 24v10c6 6 18 6 24 0V24"/>
    </g>
    <text x="40" y="296" font-family="Inter, Arial, sans-serif" font-size="9" fill="#94A3B8" text-anchor="middle">VR Training</text>
    <text x="40" y="307" font-family="Inter, Arial, sans-serif" font-size="9" fill="#94A3B8" text-anchor="middle">Simulations</text>
  </g>

  <!-- Spatial Data Visualization -->
  <g transform="translate(280, 200)">
    <rect x="0" y="0" width="80" height="80" rx="8" fill="#0B0F1A"/>
    <g transform="translate(16, 16)" stroke="#00C8DC" stroke-width="1.5" stroke-linecap="round" stroke-linejoin="round">
      <path d="M6 6v36h36"/>
      <path d="M36 34V18M26 34V10M16 34v-6"/>
    </g>
    <text x="40" y="296" font-family="Inter, Arial, sans-serif" font-size="9" fill="#94A3B8" text-anchor="middle">Spatial Data</text>
    <text x="40" y="307" font-family="Inter, Arial, sans-serif" font-size="9" fill="#94A3B8" text-anchor="middle">Visualization</text>
  </g>

  <!-- Systems Integration -->
  <g transform="translate(400, 200)">
    <rect x="0" y="0" width="80" height="80" rx="8" fill="#0B0F1A"/>
    <g transform="translate(16, 16)" stroke="#00C8DC" stroke-width="1.5" stroke-linecap="round" stroke-linejoin="round">
      <path d="M20 26a10 10 0 0 0 15.08 1.08l6-6a10 10 0 0 0-14.14-14.14l-3.44 3.42"/>
      <path d="M28 22a10 10 0 0 0-15.08-1.08l-6 6a10 10 0 0 0 14.14 14.14l3.42-3.42"/>
    </g>
    <text x="40" y="296" font-family="Inter, Arial, sans-serif" font-size="9" fill="#94A3B8" text-anchor="middle">Systems</text>
    <text x="40" y="307" font-family="Inter, Arial, sans-serif" font-size="9" fill="#94A3B8" text-anchor="middle">Integration</text>
  </g>

</svg>
